P2
# feep.ascii.pgm
24 7
15
5 5  5  5  5  5  5  5  5 5  5  5  5  5  5  5  5 5  5  5  5  5  5  5
5 3  3  3  3  5  5  7  7 7  7  5  5 11 11 5 11 5  5 15 15 15 15  5
5 3  5  5  5  5  5  7  5 5  5  5  5 11  5  5  5 5  5 15  5  5 15  5
5 3  3  3  5  5  5  7  7 7  5  5  5 11 11 11  5 5  5 15 15 15 15  5
5 3  5  5  5  5  5  7  5 5  5  5  5 11  5  5  5 5  5 15  5  5  5  5
5 3  5  5  5  5  5  7  7 7  7  5  5 11 11 11 11 5  5 15  5  5  5  5
5 5  5  5  5  5  5  5  5 5  5  5  5  5  5  5  5 5  5  5  5  5  5  5
